<svg width="30" height="30" viewBox="0 0 30 30" fill="none" xmlns="http://www.w3.org/2000/svg">
<path fill-rule="evenodd" clip-rule="evenodd" d="M14.9453 1.5H15.0546C17.2857 1.49999 19.0349 1.49999 20.4366 1.6239C21.8646 1.75016 23.0394 2.01168 24.0894 2.59973C25.4772 3.37695 26.623 4.52281 27.4003 5.91065C27.9883 6.96066 28.2498 8.13539 28.3761 9.56341C28.5 10.9651 28.5 12.7142 28.5 14.9452V15.0548C28.5 17.2859 28.5 19.0349 28.3761 20.4366C28.2498 21.8646 27.9883 23.0394 27.4003 24.0894C26.623 25.4772 25.4772 26.623 24.0894 27.4003C23.0394 27.9883 21.8646 28.2498 20.4366 28.3761C19.0349 28.5 17.2859 28.5 15.0548 28.5H14.3125C13.6912 28.5 13.1875 27.9963 13.1875 27.375C13.1875 26.7537 13.6912 26.25 14.3125 26.25H15C17.2976 26.25 18.9474 26.249 20.2384 26.1348C21.5147 26.022 22.3325 25.8054 22.9899 25.4371C24.0158 24.8626 24.8626 24.0158 25.4371 22.9899C25.8054 22.3325 26.022 21.5147 26.1348 20.2384C26.249 18.9474 26.25 17.2976 26.25 15C26.25 12.7025 26.249 11.0526 26.1348 9.76155C26.022 8.48532 25.8054 7.66758 25.4371 7.01004C24.8626 5.98425 24.0158 5.1373 22.9899 4.56283C22.3325 4.1946 21.5147 3.97799 20.2384 3.86517C18.9474 3.75102 17.2976 3.75 15 3.75C12.7025 3.75 11.0526 3.75102 9.76155 3.86517C8.48532 3.97799 7.66758 4.1946 7.01004 4.56283C5.98425 5.1373 5.1373 5.98425 4.56283 7.01004C4.1946 7.66758 3.97799 8.48532 3.86517 9.76155C3.75102 11.0526 3.75 12.7025 3.75 15V15.6874C3.75 16.3087 3.24632 16.8124 2.625 16.8124C2.00369 16.8124 1.5 16.3087 1.5 15.6874V14.9453C1.49999 12.7143 1.49999 10.9651 1.6239 9.56341C1.75016 8.13539 2.01168 6.96066 2.59973 5.91065C3.37695 4.52281 4.52281 3.37695 5.91065 2.59973C6.96066 2.01168 8.13539 1.75016 9.56341 1.6239C10.9651 1.49999 12.7143 1.49999 14.9453 1.5Z" fill="white"/>
<path d="M20.7501 13.625C20.7501 14.2463 21.2538 14.75 21.8751 14.75C22.4964 14.75 23.0001 14.2463 23.0001 13.625V8.125C23.0001 7.92921 22.95 7.7451 22.8621 7.58475C22.8394 7.54333 22.8139 7.50306 22.7856 7.46418C22.716 7.36842 22.6317 7.28406 22.5358 7.21444C22.4971 7.18624 22.4569 7.16082 22.4157 7.13818C22.2552 7.0501 22.071 7 21.8751 7H16.375C15.7537 7 15.25 7.50367 15.25 8.125C15.25 8.74632 15.7537 9.25 16.375 9.25H19.159L14.2045 14.2046C13.7652 14.6439 13.7652 15.3563 14.2045 15.7956C14.6438 16.2348 15.3561 16.2348 15.7954 15.7956L20.7501 10.841V13.625Z" fill="white"/>
<path d="M6.79577 18H6.70425C6.00797 18 5.41644 18 4.93155 18.0408C4.42235 18.0835 3.92952 18.1771 3.46137 18.424C2.80559 18.7696 2.26967 19.3056 1.92399 19.9614C1.67723 20.4295 1.58354 20.9223 1.54073 21.4315C1.49997 21.9165 1.49998 22.5079 1.5 23.2042V23.2958C1.49998 23.9921 1.49997 24.5835 1.54073 25.0684C1.58354 25.5777 1.67723 26.0704 1.92399 26.5386C2.26967 27.1944 2.80559 27.7304 3.46137 28.076C3.92952 28.3229 4.42235 28.4164 4.93155 28.4592C5.41643 28.5 6.00792 28.5 6.70419 28.5H6.79578C7.49205 28.5 8.08358 28.5 8.56847 28.4592C9.07767 28.4164 9.57048 28.3229 10.0386 28.076C10.6944 27.7304 11.2304 27.1944 11.576 26.5386C11.8228 26.0704 11.9165 25.5777 11.9593 25.0684C12 24.5835 12 23.9921 12 23.2958V23.2042C12 22.5079 12 21.9165 11.9593 21.4315C11.9165 20.9223 11.8228 20.4295 11.576 19.9614C11.2304 19.3056 10.6944 18.7696 10.0386 18.424C9.57048 18.1771 9.07767 18.0835 8.56847 18.0408C8.08358 18 7.49205 18 6.79577 18Z" fill="white"/>
</svg>
