<svg width="1241" height="918" viewBox="0 0 1241 918" fill="none" xmlns="http://www.w3.org/2000/svg">
<path fill-rule="evenodd" clip-rule="evenodd" d="M1225.95 296.5H1226.05C1228.29 296.5 1230.03 296.5 1231.44 296.624C1232.86 296.75 1234.04 297.012 1235.09 297.6C1236.48 298.377 1237.62 299.523 1238.4 300.911C1238.99 301.961 1239.25 303.135 1239.38 304.563C1239.5 305.965 1239.5 307.714 1239.5 309.945V310.055C1239.5 312.286 1239.5 314.035 1239.38 315.437C1239.25 316.865 1238.99 318.039 1238.4 319.089C1237.62 320.477 1236.48 321.623 1235.09 322.4C1234.04 322.988 1232.86 323.25 1231.44 323.376C1230.03 323.5 1228.29 323.5 1226.05 323.5H1225.31C1224.69 323.5 1224.19 322.996 1224.19 322.375C1224.19 321.754 1224.69 321.25 1225.31 321.25H1226C1228.3 321.25 1229.95 321.249 1231.24 321.135C1232.51 321.022 1233.33 320.805 1233.99 320.437C1235.02 319.863 1235.86 319.016 1236.44 317.99C1236.81 317.332 1237.02 316.515 1237.13 315.238C1237.25 313.947 1237.25 312.298 1237.25 310C1237.25 307.702 1237.25 306.053 1237.13 304.762C1237.02 303.485 1236.81 302.668 1236.44 302.01C1235.86 300.984 1235.02 300.137 1233.99 299.563C1233.33 299.195 1232.51 298.978 1231.24 298.865C1229.95 298.751 1228.3 298.75 1226 298.75C1223.7 298.75 1222.05 298.751 1220.76 298.865C1219.49 298.978 1218.67 299.195 1218.01 299.563C1216.98 300.137 1216.14 300.984 1215.56 302.01C1215.19 302.668 1214.98 303.485 1214.87 304.762C1214.75 306.053 1214.75 307.702 1214.75 310V310.687C1214.75 311.309 1214.25 311.812 1213.63 311.812C1213 311.812 1212.5 311.309 1212.5 310.687V309.945C1212.5 307.714 1212.5 305.965 1212.62 304.563C1212.75 303.135 1213.01 301.961 1213.6 300.911C1214.38 299.523 1215.52 298.377 1216.91 297.6C1217.96 297.012 1219.14 296.75 1220.56 296.624C1221.97 296.5 1223.71 296.5 1225.95 296.5Z" fill="white"/>
<path d="M1231.75 308.625C1231.75 309.246 1232.25 309.75 1232.88 309.75C1233.5 309.75 1234 309.246 1234 308.625V303.125C1234 302.929 1233.95 302.745 1233.86 302.585C1233.84 302.543 1233.81 302.503 1233.79 302.464C1233.72 302.368 1233.63 302.284 1233.54 302.214C1233.5 302.186 1233.46 302.161 1233.42 302.138C1233.26 302.05 1233.07 302 1232.88 302H1227.38C1226.75 302 1226.25 302.504 1226.25 303.125C1226.25 303.746 1226.75 304.25 1227.38 304.25H1230.16L1225.2 309.205C1224.77 309.644 1224.77 310.356 1225.2 310.796C1225.64 311.235 1226.36 311.235 1226.8 310.796L1231.75 305.841V308.625Z" fill="white"/>
<path d="M1217.8 313H1217.7C1217.01 313 1216.42 313 1215.93 313.041C1215.42 313.084 1214.93 313.177 1214.46 313.424C1213.81 313.77 1213.27 314.306 1212.92 314.961C1212.68 315.43 1212.58 315.922 1212.54 316.432C1212.5 316.916 1212.5 317.508 1212.5 318.204V318.296C1212.5 318.992 1212.5 319.583 1212.54 320.068C1212.58 320.578 1212.68 321.07 1212.92 321.539C1213.27 322.194 1213.81 322.73 1214.46 323.076C1214.93 323.323 1215.42 323.416 1215.93 323.459C1216.42 323.5 1217.01 323.5 1217.7 323.5H1217.8C1218.49 323.5 1219.08 323.5 1219.57 323.459C1220.08 323.416 1220.57 323.323 1221.04 323.076C1221.69 322.73 1222.23 322.194 1222.58 321.539C1222.82 321.07 1222.92 320.578 1222.96 320.068C1223 319.583 1223 318.992 1223 318.296V318.204C1223 317.508 1223 316.916 1222.96 316.432C1222.92 315.922 1222.82 315.43 1222.58 314.961C1222.23 314.306 1221.69 313.77 1221.04 313.424C1220.57 313.177 1220.08 313.084 1219.57 313.041C1219.08 313 1218.49 313 1217.8 313Z" fill="white"/>
<path fill-rule="evenodd" clip-rule="evenodd" d="M1224.95 576.5H1225.05C1227.29 576.5 1229.03 576.5 1230.44 576.624C1231.86 576.75 1233.04 577.012 1234.09 577.6C1235.48 578.377 1236.62 579.523 1237.4 580.911C1237.99 581.961 1238.25 583.135 1238.38 584.563C1238.5 585.965 1238.5 587.714 1238.5 589.945V590.055C1238.5 592.286 1238.5 594.035 1238.38 595.437C1238.25 596.865 1237.99 598.039 1237.4 599.089C1236.62 600.477 1235.48 601.623 1234.09 602.4C1233.04 602.988 1231.86 603.25 1230.44 603.376C1229.03 603.5 1227.29 603.5 1225.05 603.5H1224.31C1223.69 603.5 1223.19 602.996 1223.19 602.375C1223.19 601.754 1223.69 601.25 1224.31 601.25H1225C1227.3 601.25 1228.95 601.249 1230.24 601.135C1231.51 601.022 1232.33 600.805 1232.99 600.437C1234.02 599.863 1234.86 599.016 1235.44 597.99C1235.81 597.332 1236.02 596.515 1236.13 595.238C1236.25 593.947 1236.25 592.298 1236.25 590C1236.25 587.702 1236.25 586.053 1236.13 584.762C1236.02 583.485 1235.81 582.668 1235.44 582.01C1234.86 580.984 1234.02 580.137 1232.99 579.563C1232.33 579.195 1231.51 578.978 1230.24 578.865C1228.95 578.751 1227.3 578.75 1225 578.75C1222.7 578.75 1221.05 578.751 1219.76 578.865C1218.49 578.978 1217.67 579.195 1217.01 579.563C1215.98 580.137 1215.14 580.984 1214.56 582.01C1214.19 582.668 1213.98 583.485 1213.87 584.762C1213.75 586.053 1213.75 587.702 1213.75 590V590.687C1213.75 591.309 1213.25 591.812 1212.63 591.812C1212 591.812 1211.5 591.309 1211.5 590.687V589.945C1211.5 587.714 1211.5 585.965 1211.62 584.563C1211.75 583.135 1212.01 581.961 1212.6 580.911C1213.38 579.523 1214.52 578.377 1215.91 577.6C1216.96 577.012 1218.14 576.75 1219.56 576.624C1220.97 576.5 1222.71 576.5 1224.95 576.5Z" fill="white"/>
<path d="M1230.75 588.625C1230.75 589.246 1231.25 589.75 1231.88 589.75C1232.5 589.75 1233 589.246 1233 588.625V583.125C1233 582.929 1232.95 582.745 1232.86 582.585C1232.84 582.543 1232.81 582.503 1232.79 582.464C1232.72 582.368 1232.63 582.284 1232.54 582.214C1232.5 582.186 1232.46 582.161 1232.42 582.138C1232.26 582.05 1232.07 582 1231.88 582H1226.38C1225.75 582 1225.25 582.504 1225.25 583.125C1225.25 583.746 1225.75 584.25 1226.38 584.25H1229.16L1224.2 589.205C1223.77 589.644 1223.77 590.356 1224.2 590.796C1224.64 591.235 1225.36 591.235 1225.8 590.796L1230.75 585.841V588.625Z" fill="white"/>
<path d="M1216.8 593H1216.7C1216.01 593 1215.42 593 1214.93 593.041C1214.42 593.084 1213.93 593.177 1213.46 593.424C1212.81 593.77 1212.27 594.306 1211.92 594.961C1211.68 595.43 1211.58 595.922 1211.54 596.432C1211.5 596.916 1211.5 597.508 1211.5 598.204V598.296C1211.5 598.992 1211.5 599.583 1211.54 600.068C1211.58 600.578 1211.68 601.07 1211.92 601.539C1212.27 602.194 1212.81 602.73 1213.46 603.076C1213.93 603.323 1214.42 603.416 1214.93 603.459C1215.42 603.5 1216.01 603.5 1216.7 603.5H1216.8C1217.49 603.5 1218.08 603.5 1218.57 603.459C1219.08 603.416 1219.57 603.323 1220.04 603.076C1220.69 602.73 1221.23 602.194 1221.58 601.539C1221.82 601.07 1221.92 600.578 1221.96 600.068C1222 599.583 1222 598.992 1222 598.296V598.204C1222 597.508 1222 596.916 1221.96 596.432C1221.92 595.922 1221.82 595.43 1221.58 594.961C1221.23 594.306 1220.69 593.77 1220.04 593.424C1219.57 593.177 1219.08 593.084 1218.57 593.041C1218.08 593 1217.49 593 1216.8 593Z" fill="white"/>
<path fill-rule="evenodd" clip-rule="evenodd" d="M822.945 1.5H823.055C825.286 1.49999 827.035 1.49999 828.437 1.6239C829.865 1.75016 831.039 2.01168 832.089 2.59973C833.477 3.37695 834.623 4.52281 835.4 5.91065C835.988 6.96066 836.25 8.13539 836.376 9.56341C836.5 10.9651 836.5 12.7142 836.5 14.9452V15.0548C836.5 17.2859 836.5 19.0349 836.376 20.4366C836.25 21.8646 835.988 23.0394 835.4 24.0894C834.623 25.4772 833.477 26.623 832.089 27.4003C831.039 27.9883 829.865 28.2498 828.437 28.3761C827.035 28.5 825.286 28.5 823.055 28.5H822.313C821.691 28.5 821.188 27.9963 821.188 27.375C821.188 26.7537 821.691 26.25 822.313 26.25H823C825.298 26.25 826.947 26.249 828.238 26.1348C829.515 26.022 830.332 25.8054 830.99 25.4371C832.016 24.8626 832.863 24.0158 833.437 22.9899C833.805 22.3325 834.022 21.5147 834.135 20.2384C834.249 18.9474 834.25 17.2976 834.25 15C834.25 12.7025 834.249 11.0526 834.135 9.76155C834.022 8.48532 833.805 7.66758 833.437 7.01004C832.863 5.98425 832.016 5.1373 830.99 4.56283C830.332 4.1946 829.515 3.97799 828.238 3.86517C826.947 3.75102 825.298 3.75 823 3.75C820.702 3.75 819.053 3.75102 817.762 3.86517C816.485 3.97799 815.668 4.1946 815.01 4.56283C813.984 5.1373 813.137 5.98425 812.563 7.01004C812.195 7.66758 811.978 8.48532 811.865 9.76155C811.751 11.0526 811.75 12.7025 811.75 15V15.6874C811.75 16.3087 811.246 16.8124 810.625 16.8124C810.004 16.8124 809.5 16.3087 809.5 15.6874V14.9453C809.5 12.7143 809.5 10.9651 809.624 9.56341C809.75 8.13539 810.012 6.96066 810.6 5.91065C811.377 4.52281 812.523 3.37695 813.911 2.59973C814.961 2.01168 816.135 1.75016 817.563 1.6239C818.965 1.49999 820.714 1.49999 822.945 1.5Z" fill="white"/>
<path d="M828.75 13.625C828.75 14.2463 829.254 14.75 829.875 14.75C830.496 14.75 831 14.2463 831 13.625V8.12497C831 7.92917 830.95 7.74506 830.862 7.58471C830.839 7.5433 830.814 7.50302 830.786 7.46414C830.716 7.36838 830.632 7.28402 830.536 7.21441C830.497 7.18621 830.457 7.16078 830.416 7.13815C830.255 7.05007 830.071 6.99997 829.875 6.99997H824.375C823.754 6.99997 823.25 7.50364 823.25 8.12497C823.25 8.74628 823.754 9.24997 824.375 9.24997H827.159L822.205 14.2045C821.765 14.6439 821.765 15.3562 822.205 15.7956C822.644 16.2348 823.356 16.2348 823.795 15.7956L828.75 10.841V13.625Z" fill="white"/>
<path d="M814.796 18H814.704C814.008 18 813.416 18 812.932 18.0408C812.422 18.0835 811.93 18.1771 811.461 18.424C810.806 18.7696 810.27 19.3056 809.924 19.9614C809.677 20.4295 809.584 20.9223 809.541 21.4315C809.5 21.9165 809.5 22.5079 809.5 23.2042V23.2958C809.5 23.9921 809.5 24.5835 809.541 25.0684C809.584 25.5777 809.677 26.0704 809.924 26.5386C810.27 27.1944 810.806 27.7304 811.461 28.076C811.93 28.3229 812.422 28.4164 812.932 28.4592C813.416 28.5 814.008 28.5 814.704 28.5H814.796C815.492 28.5 816.084 28.5 816.568 28.4592C817.078 28.4164 817.57 28.3229 818.039 28.076C818.694 27.7304 819.23 27.1944 819.576 26.5386C819.823 26.0704 819.916 25.5777 819.959 25.0684C820 24.5835 820 23.9921 820 23.2958V23.2042C820 22.5079 820 21.9165 819.959 21.4315C819.916 20.9223 819.823 20.4295 819.576 19.9614C819.23 19.3056 818.694 18.7696 818.039 18.424C817.57 18.1771 817.078 18.0835 816.568 18.0408C816.084 18 815.492 18 814.796 18Z" fill="white"/>
<path fill-rule="evenodd" clip-rule="evenodd" d="M819.945 296.5H820.055C822.286 296.5 824.035 296.5 825.437 296.624C826.865 296.75 828.039 297.012 829.089 297.6C830.477 298.377 831.623 299.523 832.4 300.911C832.988 301.961 833.25 303.135 833.376 304.563C833.5 305.965 833.5 307.714 833.5 309.945V310.055C833.5 312.286 833.5 314.035 833.376 315.437C833.25 316.865 832.988 318.039 832.4 319.089C831.623 320.477 830.477 321.623 829.089 322.4C828.039 322.988 826.865 323.25 825.437 323.376C824.035 323.5 822.286 323.5 820.055 323.5H819.313C818.691 323.5 818.188 322.996 818.188 322.375C818.188 321.754 818.691 321.25 819.313 321.25H820C822.298 321.25 823.947 321.249 825.238 321.135C826.515 321.022 827.332 320.805 827.99 320.437C829.016 319.863 829.863 319.016 830.437 317.99C830.805 317.332 831.022 316.515 831.135 315.238C831.249 313.947 831.25 312.298 831.25 310C831.25 307.702 831.249 306.053 831.135 304.762C831.022 303.485 830.805 302.668 830.437 302.01C829.863 300.984 829.016 300.137 827.99 299.563C827.332 299.195 826.515 298.978 825.238 298.865C823.947 298.751 822.298 298.75 820 298.75C817.702 298.75 816.053 298.751 814.762 298.865C813.485 298.978 812.668 299.195 812.01 299.563C810.984 300.137 810.137 300.984 809.563 302.01C809.195 302.668 808.978 303.485 808.865 304.762C808.751 306.053 808.75 307.702 808.75 310V310.687C808.75 311.309 808.246 311.812 807.625 311.812C807.004 311.812 806.5 311.309 806.5 310.687V309.945C806.5 307.714 806.5 305.965 806.624 304.563C806.75 303.135 807.012 301.961 807.6 300.911C808.377 299.523 809.523 298.377 810.911 297.6C811.961 297.012 813.135 296.75 814.563 296.624C815.965 296.5 817.714 296.5 819.945 296.5Z" fill="white"/>
<path d="M825.75 308.625C825.75 309.246 826.254 309.75 826.875 309.75C827.496 309.75 828 309.246 828 308.625V303.125C828 302.929 827.95 302.745 827.862 302.585C827.839 302.543 827.814 302.503 827.786 302.464C827.716 302.368 827.632 302.284 827.536 302.214C827.497 302.186 827.457 302.161 827.416 302.138C827.255 302.05 827.071 302 826.875 302H821.375C820.754 302 820.25 302.504 820.25 303.125C820.25 303.746 820.754 304.25 821.375 304.25H824.159L819.205 309.205C818.765 309.644 818.765 310.356 819.205 310.796C819.644 311.235 820.356 311.235 820.795 310.796L825.75 305.841V308.625Z" fill="white"/>
<path d="M811.796 313H811.704C811.008 313 810.416 313 809.932 313.041C809.422 313.084 808.93 313.177 808.461 313.424C807.806 313.77 807.27 314.306 806.924 314.961C806.677 315.43 806.584 315.922 806.541 316.432C806.5 316.916 806.5 317.508 806.5 318.204V318.296C806.5 318.992 806.5 319.583 806.541 320.068C806.584 320.578 806.677 321.07 806.924 321.539C807.27 322.194 807.806 322.73 808.461 323.076C808.93 323.323 809.422 323.416 809.932 323.459C810.416 323.5 811.008 323.5 811.704 323.5H811.796C812.492 323.5 813.084 323.5 813.568 323.459C814.078 323.416 814.57 323.323 815.039 323.076C815.694 322.73 816.23 322.194 816.576 321.539C816.823 321.07 816.916 320.578 816.959 320.068C817 319.583 817 318.992 817 318.296V318.204C817 317.508 817 316.916 816.959 316.432C816.916 315.922 816.823 315.43 816.576 314.961C816.23 314.306 815.694 313.77 815.039 313.424C814.57 313.177 814.078 313.084 813.568 313.041C813.084 313 812.492 313 811.796 313Z" fill="white"/>
<path fill-rule="evenodd" clip-rule="evenodd" d="M818.945 576.5H819.055C821.286 576.5 823.035 576.5 824.437 576.624C825.865 576.75 827.039 577.012 828.089 577.6C829.477 578.377 830.623 579.523 831.4 580.911C831.988 581.961 832.25 583.135 832.376 584.563C832.5 585.965 832.5 587.714 832.5 589.945V590.055C832.5 592.286 832.5 594.035 832.376 595.437C832.25 596.865 831.988 598.039 831.4 599.089C830.623 600.477 829.477 601.623 828.089 602.4C827.039 602.988 825.865 603.25 824.437 603.376C823.035 603.5 821.286 603.5 819.055 603.5H818.313C817.691 603.5 817.188 602.996 817.188 602.375C817.188 601.754 817.691 601.25 818.313 601.25H819C821.298 601.25 822.947 601.249 824.238 601.135C825.515 601.022 826.332 600.805 826.99 600.437C828.016 599.863 828.863 599.016 829.437 597.99C829.805 597.332 830.022 596.515 830.135 595.238C830.249 593.947 830.25 592.298 830.25 590C830.25 587.702 830.249 586.053 830.135 584.762C830.022 583.485 829.805 582.668 829.437 582.01C828.863 580.984 828.016 580.137 826.99 579.563C826.332 579.195 825.515 578.978 824.238 578.865C822.947 578.751 821.298 578.75 819 578.75C816.702 578.75 815.053 578.751 813.762 578.865C812.485 578.978 811.668 579.195 811.01 579.563C809.984 580.137 809.137 580.984 808.563 582.01C808.195 582.668 807.978 583.485 807.865 584.762C807.751 586.053 807.75 587.702 807.75 590V590.687C807.75 591.309 807.246 591.812 806.625 591.812C806.004 591.812 805.5 591.309 805.5 590.687V589.945C805.5 587.714 805.5 585.965 805.624 584.563C805.75 583.135 806.012 581.961 806.6 580.911C807.377 579.523 808.523 578.377 809.911 577.6C810.961 577.012 812.135 576.75 813.563 576.624C814.965 576.5 816.714 576.5 818.945 576.5Z" fill="white"/>
<path d="M824.75 588.625C824.75 589.246 825.254 589.75 825.875 589.75C826.496 589.75 827 589.246 827 588.625V583.125C827 582.929 826.95 582.745 826.862 582.585C826.839 582.543 826.814 582.503 826.786 582.464C826.716 582.368 826.632 582.284 826.536 582.214C826.497 582.186 826.457 582.161 826.416 582.138C826.255 582.05 826.071 582 825.875 582H820.375C819.754 582 819.25 582.504 819.25 583.125C819.25 583.746 819.754 584.25 820.375 584.25H823.159L818.205 589.205C817.765 589.644 817.765 590.356 818.205 590.796C818.644 591.235 819.356 591.235 819.795 590.796L824.75 585.841V588.625Z" fill="white"/>
<path d="M810.796 593H810.704C810.008 593 809.416 593 808.932 593.041C808.422 593.084 807.93 593.177 807.461 593.424C806.806 593.77 806.27 594.306 805.924 594.961C805.677 595.43 805.584 595.922 805.541 596.432C805.5 596.916 805.5 597.508 805.5 598.204V598.296C805.5 598.992 805.5 599.583 805.541 600.068C805.584 600.578 805.677 601.07 805.924 601.539C806.27 602.194 806.806 602.73 807.461 603.076C807.93 603.323 808.422 603.416 808.932 603.459C809.416 603.5 810.008 603.5 810.704 603.5H810.796C811.492 603.5 812.084 603.5 812.568 603.459C813.078 603.416 813.57 603.323 814.039 603.076C814.694 602.73 815.23 602.194 815.576 601.539C815.823 601.07 815.916 600.578 815.959 600.068C816 599.583 816 598.992 816 598.296V598.204C816 597.508 816 596.916 815.959 596.432C815.916 595.922 815.823 595.43 815.576 594.961C815.23 594.306 814.694 593.77 814.039 593.424C813.57 593.177 813.078 593.084 812.568 593.041C812.084 593 811.492 593 810.796 593Z" fill="white"/>
<path fill-rule="evenodd" clip-rule="evenodd" d="M1225.95 1.5H1226.05C1228.29 1.49999 1230.03 1.49999 1231.44 1.6239C1232.86 1.75016 1234.04 2.01168 1235.09 2.59973C1236.48 3.37695 1237.62 4.52281 1238.4 5.91065C1238.99 6.96066 1239.25 8.13539 1239.38 9.56341C1239.5 10.9651 1239.5 12.7142 1239.5 14.9452V15.0548C1239.5 17.2859 1239.5 19.0349 1239.38 20.4366C1239.25 21.8646 1238.99 23.0394 1238.4 24.0894C1237.62 25.4772 1236.48 26.623 1235.09 27.4003C1234.04 27.9883 1232.86 28.2498 1231.44 28.3761C1230.03 28.5 1228.29 28.5 1226.05 28.5H1225.31C1224.69 28.5 1224.19 27.9963 1224.19 27.375C1224.19 26.7537 1224.69 26.25 1225.31 26.25H1226C1228.3 26.25 1229.95 26.249 1231.24 26.1348C1232.51 26.022 1233.33 25.8054 1233.99 25.4371C1235.02 24.8626 1235.86 24.0158 1236.44 22.9899C1236.81 22.3325 1237.02 21.5147 1237.13 20.2384C1237.25 18.9474 1237.25 17.2976 1237.25 15C1237.25 12.7025 1237.25 11.0526 1237.13 9.76155C1237.02 8.48532 1236.81 7.66758 1236.44 7.01004C1235.86 5.98425 1235.02 5.1373 1233.99 4.56283C1233.33 4.1946 1232.51 3.97799 1231.24 3.86517C1229.95 3.75102 1228.3 3.75 1226 3.75C1223.7 3.75 1222.05 3.75102 1220.76 3.86517C1219.49 3.97799 1218.67 4.1946 1218.01 4.56283C1216.98 5.1373 1216.14 5.98425 1215.56 7.01004C1215.19 7.66758 1214.98 8.48532 1214.87 9.76155C1214.75 11.0526 1214.75 12.7025 1214.75 15V15.6874C1214.75 16.3087 1214.25 16.8124 1213.63 16.8124C1213 16.8124 1212.5 16.3087 1212.5 15.6874V14.9453C1212.5 12.7143 1212.5 10.9651 1212.62 9.56341C1212.75 8.13539 1213.01 6.96066 1213.6 5.91065C1214.38 4.52281 1215.52 3.37695 1216.91 2.59973C1217.96 2.01168 1219.14 1.75016 1220.56 1.6239C1221.97 1.49999 1223.71 1.49999 1225.95 1.5Z" fill="white"/>
<path d="M1231.75 13.625C1231.75 14.2463 1232.25 14.75 1232.88 14.75C1233.5 14.75 1234 14.2463 1234 13.625V8.12497C1234 7.92917 1233.95 7.74506 1233.86 7.58471C1233.84 7.5433 1233.81 7.50302 1233.79 7.46414C1233.72 7.36838 1233.63 7.28402 1233.54 7.21441C1233.5 7.18621 1233.46 7.16078 1233.42 7.13815C1233.26 7.05007 1233.07 6.99997 1232.88 6.99997H1227.38C1226.75 6.99997 1226.25 7.50364 1226.25 8.12497C1226.25 8.74628 1226.75 9.24997 1227.38 9.24997H1230.16L1225.2 14.2045C1224.77 14.6439 1224.77 15.3562 1225.2 15.7956C1225.64 16.2348 1226.36 16.2348 1226.8 15.7956L1231.75 10.841V13.625Z" fill="white"/>
<path d="M1217.8 18H1217.7C1217.01 18 1216.42 18 1215.93 18.0408C1215.42 18.0835 1214.93 18.1771 1214.46 18.424C1213.81 18.7696 1213.27 19.3056 1212.92 19.9614C1212.68 20.4295 1212.58 20.9223 1212.54 21.4315C1212.5 21.9165 1212.5 22.5079 1212.5 23.2042V23.2958C1212.5 23.9921 1212.5 24.5835 1212.54 25.0684C1212.58 25.5777 1212.68 26.0704 1212.92 26.5386C1213.27 27.1944 1213.81 27.7304 1214.46 28.076C1214.93 28.3229 1215.42 28.4164 1215.93 28.4592C1216.42 28.5 1217.01 28.5 1217.7 28.5H1217.8C1218.49 28.5 1219.08 28.5 1219.57 28.4592C1220.08 28.4164 1220.57 28.3229 1221.04 28.076C1221.69 27.7304 1222.23 27.1944 1222.58 26.5386C1222.82 26.0704 1222.92 25.5777 1222.96 25.0684C1223 24.5835 1223 23.9921 1223 23.2958V23.2042C1223 22.5079 1223 21.9165 1222.96 21.4315C1222.92 20.9223 1222.82 20.4295 1222.58 19.9614C1222.23 19.3056 1221.69 18.7696 1221.04 18.424C1220.57 18.1771 1220.08 18.0835 1219.57 18.0408C1219.08 18 1218.49 18 1217.8 18Z" fill="white"/>
<path fill-rule="evenodd" clip-rule="evenodd" d="M420.945 1.5H421.055C423.286 1.49999 425.035 1.49999 426.437 1.6239C427.865 1.75016 429.039 2.01168 430.089 2.59973C431.477 3.37695 432.623 4.52281 433.4 5.91065C433.988 6.96066 434.25 8.13539 434.376 9.56341C434.5 10.9651 434.5 12.7142 434.5 14.9452V15.0548C434.5 17.2859 434.5 19.0349 434.376 20.4366C434.25 21.8646 433.988 23.0394 433.4 24.0894C432.623 25.4772 431.477 26.623 430.089 27.4003C429.039 27.9883 427.865 28.2498 426.437 28.3761C425.035 28.5 423.286 28.5 421.055 28.5H420.313C419.691 28.5 419.188 27.9963 419.188 27.375C419.188 26.7537 419.691 26.25 420.313 26.25H421C423.298 26.25 424.947 26.249 426.238 26.1348C427.515 26.022 428.332 25.8054 428.99 25.4371C430.016 24.8626 430.863 24.0158 431.437 22.9899C431.805 22.3325 432.022 21.5147 432.135 20.2384C432.249 18.9474 432.25 17.2976 432.25 15C432.25 12.7025 432.249 11.0526 432.135 9.76155C432.022 8.48532 431.805 7.66758 431.437 7.01004C430.863 5.98425 430.016 5.1373 428.99 4.56283C428.332 4.1946 427.515 3.97799 426.238 3.86517C424.947 3.75102 423.298 3.75 421 3.75C418.702 3.75 417.053 3.75102 415.762 3.86517C414.485 3.97799 413.668 4.1946 413.01 4.56283C411.984 5.1373 411.137 5.98425 410.563 7.01004C410.195 7.66758 409.978 8.48532 409.865 9.76155C409.751 11.0526 409.75 12.7025 409.75 15V15.6874C409.75 16.3087 409.246 16.8124 408.625 16.8124C408.004 16.8124 407.5 16.3087 407.5 15.6874V14.9453C407.5 12.7143 407.5 10.9651 407.624 9.56341C407.75 8.13539 408.012 6.96066 408.6 5.91065C409.377 4.52281 410.523 3.37695 411.911 2.59973C412.961 2.01168 414.135 1.75016 415.563 1.6239C416.965 1.49999 418.714 1.49999 420.945 1.5Z" fill="white"/>
<path d="M426.75 13.625C426.75 14.2463 427.254 14.75 427.875 14.75C428.496 14.75 429 14.2463 429 13.625V8.12497C429 7.92917 428.95 7.74506 428.862 7.58471C428.839 7.5433 428.814 7.50302 428.786 7.46414C428.716 7.36838 428.632 7.28402 428.536 7.21441C428.497 7.18621 428.457 7.16078 428.416 7.13815C428.255 7.05007 428.071 6.99997 427.875 6.99997H422.375C421.754 6.99997 421.25 7.50364 421.25 8.12497C421.25 8.74628 421.754 9.24997 422.375 9.24997H425.159L420.205 14.2045C419.765 14.6439 419.765 15.3562 420.205 15.7956C420.644 16.2348 421.356 16.2348 421.795 15.7956L426.75 10.841V13.625Z" fill="white"/>
<path d="M412.796 18H412.704C412.008 18 411.416 18 410.932 18.0408C410.422 18.0835 409.93 18.1771 409.461 18.424C408.806 18.7696 408.27 19.3056 407.924 19.9614C407.677 20.4295 407.584 20.9223 407.541 21.4315C407.5 21.9165 407.5 22.5079 407.5 23.2042V23.2958C407.5 23.9921 407.5 24.5835 407.541 25.0684C407.584 25.5777 407.677 26.0704 407.924 26.5386C408.27 27.1944 408.806 27.7304 409.461 28.076C409.93 28.3229 410.422 28.4164 410.932 28.4592C411.416 28.5 412.008 28.5 412.704 28.5H412.796C413.492 28.5 414.084 28.5 414.568 28.4592C415.078 28.4164 415.57 28.3229 416.039 28.076C416.694 27.7304 417.23 27.1944 417.576 26.5386C417.823 26.0704 417.916 25.5777 417.959 25.0684C418 24.5835 418 23.9921 418 23.2958V23.2042C418 22.5079 418 21.9165 417.959 21.4315C417.916 20.9223 417.823 20.4295 417.576 19.9614C417.23 19.3056 416.694 18.7696 416.039 18.424C415.57 18.1771 415.078 18.0835 414.568 18.0408C414.084 18 413.492 18 412.796 18Z" fill="white"/>
<path fill-rule="evenodd" clip-rule="evenodd" d="M417.945 296.5H418.055C420.286 296.5 422.035 296.5 423.437 296.624C424.865 296.75 426.039 297.012 427.089 297.6C428.477 298.377 429.623 299.523 430.4 300.911C430.988 301.961 431.25 303.135 431.376 304.563C431.5 305.965 431.5 307.714 431.5 309.945V310.055C431.5 312.286 431.5 314.035 431.376 315.437C431.25 316.865 430.988 318.039 430.4 319.089C429.623 320.477 428.477 321.623 427.089 322.4C426.039 322.988 424.865 323.25 423.437 323.376C422.035 323.5 420.286 323.5 418.055 323.5H417.313C416.691 323.5 416.188 322.996 416.188 322.375C416.188 321.754 416.691 321.25 417.313 321.25H418C420.298 321.25 421.947 321.249 423.238 321.135C424.515 321.022 425.332 320.805 425.99 320.437C427.016 319.863 427.863 319.016 428.437 317.99C428.805 317.332 429.022 316.515 429.135 315.238C429.249 313.947 429.25 312.298 429.25 310C429.25 307.702 429.249 306.053 429.135 304.762C429.022 303.485 428.805 302.668 428.437 302.01C427.863 300.984 427.016 300.137 425.99 299.563C425.332 299.195 424.515 298.978 423.238 298.865C421.947 298.751 420.298 298.75 418 298.75C415.702 298.75 414.053 298.751 412.762 298.865C411.485 298.978 410.668 299.195 410.01 299.563C408.984 300.137 408.137 300.984 407.563 302.01C407.195 302.668 406.978 303.485 406.865 304.762C406.751 306.053 406.75 307.702 406.75 310V310.687C406.75 311.309 406.246 311.812 405.625 311.812C405.004 311.812 404.5 311.309 404.5 310.687V309.945C404.5 307.714 404.5 305.965 404.624 304.563C404.75 303.135 405.012 301.961 405.6 300.911C406.377 299.523 407.523 298.377 408.911 297.6C409.961 297.012 411.135 296.75 412.563 296.624C413.965 296.5 415.714 296.5 417.945 296.5Z" fill="white"/>
<path d="M423.75 308.625C423.75 309.246 424.254 309.75 424.875 309.75C425.496 309.75 426 309.246 426 308.625V303.125C426 302.929 425.95 302.745 425.862 302.585C425.839 302.543 425.814 302.503 425.786 302.464C425.716 302.368 425.632 302.284 425.536 302.214C425.497 302.186 425.457 302.161 425.416 302.138C425.255 302.05 425.071 302 424.875 302H419.375C418.754 302 418.25 302.504 418.25 303.125C418.25 303.746 418.754 304.25 419.375 304.25H422.159L417.205 309.205C416.765 309.644 416.765 310.356 417.205 310.796C417.644 311.235 418.356 311.235 418.795 310.796L423.75 305.841V308.625Z" fill="white"/>
<path d="M409.796 313H409.704C409.008 313 408.416 313 407.932 313.041C407.422 313.084 406.93 313.177 406.461 313.424C405.806 313.77 405.27 314.306 404.924 314.961C404.677 315.43 404.584 315.922 404.541 316.432C404.5 316.916 404.5 317.508 404.5 318.204V318.296C404.5 318.992 404.5 319.583 404.541 320.068C404.584 320.578 404.677 321.07 404.924 321.539C405.27 322.194 405.806 322.73 406.461 323.076C406.93 323.323 407.422 323.416 407.932 323.459C408.416 323.5 409.008 323.5 409.704 323.5H409.796C410.492 323.5 411.084 323.5 411.568 323.459C412.078 323.416 412.57 323.323 413.039 323.076C413.694 322.73 414.23 322.194 414.576 321.539C414.823 321.07 414.916 320.578 414.959 320.068C415 319.583 415 318.992 415 318.296V318.204C415 317.508 415 316.916 414.959 316.432C414.916 315.922 414.823 315.43 414.576 314.961C414.23 314.306 413.694 313.77 413.039 313.424C412.57 313.177 412.078 313.084 411.568 313.041C411.084 313 410.492 313 409.796 313Z" fill="white"/>
<path fill-rule="evenodd" clip-rule="evenodd" d="M416.945 576.5H417.055C419.286 576.5 421.035 576.5 422.437 576.624C423.865 576.75 425.039 577.012 426.089 577.6C427.477 578.377 428.623 579.523 429.4 580.911C429.988 581.961 430.25 583.135 430.376 584.563C430.5 585.965 430.5 587.714 430.5 589.945V590.055C430.5 592.286 430.5 594.035 430.376 595.437C430.25 596.865 429.988 598.039 429.4 599.089C428.623 600.477 427.477 601.623 426.089 602.4C425.039 602.988 423.865 603.25 422.437 603.376C421.035 603.5 419.286 603.5 417.055 603.5H416.313C415.691 603.5 415.188 602.996 415.188 602.375C415.188 601.754 415.691 601.25 416.313 601.25H417C419.298 601.25 420.947 601.249 422.238 601.135C423.515 601.022 424.332 600.805 424.99 600.437C426.016 599.863 426.863 599.016 427.437 597.99C427.805 597.332 428.022 596.515 428.135 595.238C428.249 593.947 428.25 592.298 428.25 590C428.25 587.702 428.249 586.053 428.135 584.762C428.022 583.485 427.805 582.668 427.437 582.01C426.863 580.984 426.016 580.137 424.99 579.563C424.332 579.195 423.515 578.978 422.238 578.865C420.947 578.751 419.298 578.75 417 578.75C414.702 578.75 413.053 578.751 411.762 578.865C410.485 578.978 409.668 579.195 409.01 579.563C407.984 580.137 407.137 580.984 406.563 582.01C406.195 582.668 405.978 583.485 405.865 584.762C405.751 586.053 405.75 587.702 405.75 590V590.687C405.75 591.309 405.246 591.812 404.625 591.812C404.004 591.812 403.5 591.309 403.5 590.687V589.945C403.5 587.714 403.5 585.965 403.624 584.563C403.75 583.135 404.012 581.961 404.6 580.911C405.377 579.523 406.523 578.377 407.911 577.6C408.961 577.012 410.135 576.75 411.563 576.624C412.965 576.5 414.714 576.5 416.945 576.5Z" fill="white"/>
<path d="M422.75 588.625C422.75 589.246 423.254 589.75 423.875 589.75C424.496 589.75 425 589.246 425 588.625V583.125C425 582.929 424.95 582.745 424.862 582.585C424.839 582.543 424.814 582.503 424.786 582.464C424.716 582.368 424.632 582.284 424.536 582.214C424.497 582.186 424.457 582.161 424.416 582.138C424.255 582.05 424.071 582 423.875 582H418.375C417.754 582 417.25 582.504 417.25 583.125C417.25 583.746 417.754 584.25 418.375 584.25H421.159L416.205 589.205C415.765 589.644 415.765 590.356 416.205 590.796C416.644 591.235 417.356 591.235 417.795 590.796L422.75 585.841V588.625Z" fill="white"/>
<path d="M408.796 593H408.704C408.008 593 407.416 593 406.932 593.041C406.422 593.084 405.93 593.177 405.461 593.424C404.806 593.77 404.27 594.306 403.924 594.961C403.677 595.43 403.584 595.922 403.541 596.432C403.5 596.916 403.5 597.508 403.5 598.204V598.296C403.5 598.992 403.5 599.583 403.541 600.068C403.584 600.578 403.677 601.07 403.924 601.539C404.27 602.194 404.806 602.73 405.461 603.076C405.93 603.323 406.422 603.416 406.932 603.459C407.416 603.5 408.008 603.5 408.704 603.5H408.796C409.492 603.5 410.084 603.5 410.568 603.459C411.078 603.416 411.57 603.323 412.039 603.076C412.694 602.73 413.23 602.194 413.576 601.539C413.823 601.07 413.916 600.578 413.959 600.068C414 599.583 414 598.992 414 598.296V598.204C414 597.508 414 596.916 413.959 596.432C413.916 595.922 413.823 595.43 413.576 594.961C413.23 594.306 412.694 593.77 412.039 593.424C411.57 593.177 411.078 593.084 410.568 593.041C410.084 593 409.492 593 408.796 593Z" fill="white"/>
<path fill-rule="evenodd" clip-rule="evenodd" d="M416.945 889.5H417.055C419.286 889.5 421.035 889.5 422.437 889.624C423.865 889.75 425.039 890.012 426.089 890.6C427.477 891.377 428.623 892.523 429.4 893.911C429.988 894.961 430.25 896.135 430.376 897.563C430.5 898.965 430.5 900.714 430.5 902.945V903.055C430.5 905.286 430.5 907.035 430.376 908.437C430.25 909.865 429.988 911.039 429.4 912.089C428.623 913.477 427.477 914.623 426.089 915.4C425.039 915.988 423.865 916.25 422.437 916.376C421.035 916.5 419.286 916.5 417.055 916.5H416.313C415.691 916.5 415.188 915.996 415.188 915.375C415.188 914.754 415.691 914.25 416.313 914.25H417C419.298 914.25 420.947 914.249 422.238 914.135C423.515 914.022 424.332 913.805 424.99 913.437C426.016 912.863 426.863 912.016 427.437 910.99C427.805 910.332 428.022 909.515 428.135 908.238C428.249 906.947 428.25 905.298 428.25 903C428.25 900.702 428.249 899.053 428.135 897.762C428.022 896.485 427.805 895.668 427.437 895.01C426.863 893.984 426.016 893.137 424.99 892.563C424.332 892.195 423.515 891.978 422.238 891.865C420.947 891.751 419.298 891.75 417 891.75C414.702 891.75 413.053 891.751 411.762 891.865C410.485 891.978 409.668 892.195 409.01 892.563C407.984 893.137 407.137 893.984 406.563 895.01C406.195 895.668 405.978 896.485 405.865 897.762C405.751 899.053 405.75 900.702 405.75 903V903.687C405.75 904.309 405.246 904.812 404.625 904.812C404.004 904.812 403.5 904.309 403.5 903.687V902.945C403.5 900.714 403.5 898.965 403.624 897.563C403.75 896.135 404.012 894.961 404.6 893.911C405.377 892.523 406.523 891.377 407.911 890.6C408.961 890.012 410.135 889.75 411.563 889.624C412.965 889.5 414.714 889.5 416.945 889.5Z" fill="white"/>
<path d="M422.75 901.625C422.75 902.246 423.254 902.75 423.875 902.75C424.496 902.75 425 902.246 425 901.625V896.125C425 895.929 424.95 895.745 424.862 895.585C424.839 895.543 424.814 895.503 424.786 895.464C424.716 895.368 424.632 895.284 424.536 895.214C424.497 895.186 424.457 895.161 424.416 895.138C424.255 895.05 424.071 895 423.875 895H418.375C417.754 895 417.25 895.504 417.25 896.125C417.25 896.746 417.754 897.25 418.375 897.25H421.159L416.205 902.205C415.765 902.644 415.765 903.356 416.205 903.796C416.644 904.235 417.356 904.235 417.795 903.796L422.75 898.841V901.625Z" fill="white"/>
<path d="M408.796 906H408.704C408.008 906 407.416 906 406.932 906.041C406.422 906.084 405.93 906.177 405.461 906.424C404.806 906.77 404.27 907.306 403.924 907.961C403.677 908.43 403.584 908.922 403.541 909.432C403.5 909.916 403.5 910.508 403.5 911.204V911.296C403.5 911.992 403.5 912.583 403.541 913.068C403.584 913.578 403.677 914.07 403.924 914.539C404.27 915.194 404.806 915.73 405.461 916.076C405.93 916.323 406.422 916.416 406.932 916.459C407.416 916.5 408.008 916.5 408.704 916.5H408.796C409.492 916.5 410.084 916.5 410.568 916.459C411.078 916.416 411.57 916.323 412.039 916.076C412.694 915.73 413.23 915.194 413.576 914.539C413.823 914.07 413.916 913.578 413.959 913.068C414 912.583 414 911.992 414 911.296V911.204C414 910.508 414 909.916 413.959 909.432C413.916 908.922 413.823 908.43 413.576 907.961C413.23 907.306 412.694 906.77 412.039 906.424C411.57 906.177 411.078 906.084 410.568 906.041C410.084 906 409.492 906 408.796 906Z" fill="white"/>
<path fill-rule="evenodd" clip-rule="evenodd" d="M18.9453 1.5H19.0546C21.2857 1.49999 23.0349 1.49999 24.4366 1.6239C25.8646 1.75016 27.0394 2.01168 28.0894 2.59973C29.4772 3.37695 30.623 4.52281 31.4003 5.91065C31.9883 6.96066 32.2498 8.13539 32.3761 9.56341C32.5 10.9651 32.5 12.7142 32.5 14.9452V15.0548C32.5 17.2859 32.5 19.0349 32.3761 20.4366C32.2498 21.8646 31.9883 23.0394 31.4003 24.0894C30.623 25.4772 29.4772 26.623 28.0894 27.4003C27.0394 27.9883 25.8646 28.2498 24.4366 28.3761C23.0349 28.5 21.2859 28.5 19.0548 28.5H18.3125C17.6912 28.5 17.1875 27.9963 17.1875 27.375C17.1875 26.7537 17.6912 26.25 18.3125 26.25H19C21.2976 26.25 22.9474 26.249 24.2384 26.1348C25.5147 26.022 26.3325 25.8054 26.9899 25.4371C28.0158 24.8626 28.8626 24.0158 29.4371 22.9899C29.8054 22.3325 30.022 21.5147 30.1348 20.2384C30.249 18.9474 30.25 17.2976 30.25 15C30.25 12.7025 30.249 11.0526 30.1348 9.76155C30.022 8.48532 29.8054 7.66758 29.4371 7.01004C28.8626 5.98425 28.0158 5.1373 26.9899 4.56283C26.3325 4.1946 25.5147 3.97799 24.2384 3.86517C22.9474 3.75102 21.2976 3.75 19 3.75C16.7025 3.75 15.0526 3.75102 13.7615 3.86517C12.4853 3.97799 11.6676 4.1946 11.01 4.56283C9.98425 5.1373 9.1373 5.98425 8.56283 7.01004C8.1946 7.66758 7.97799 8.48532 7.86517 9.76155C7.75102 11.0526 7.75 12.7025 7.75 15V15.6874C7.75 16.3087 7.24632 16.8124 6.625 16.8124C6.00369 16.8124 5.5 16.3087 5.5 15.6874V14.9453C5.49999 12.7143 5.49999 10.9651 5.6239 9.56341C5.75016 8.13539 6.01168 6.96066 6.59973 5.91065C7.37695 4.52281 8.52281 3.37695 9.91065 2.59973C10.9607 2.01168 12.1354 1.75016 13.5634 1.6239C14.9651 1.49999 16.7143 1.49999 18.9453 1.5Z" fill="white"/>
<path d="M24.7501 13.625C24.7501 14.2463 25.2538 14.75 25.8751 14.75C26.4964 14.75 27.0001 14.2463 27.0001 13.625V8.12497C27.0001 7.92917 26.95 7.74506 26.8621 7.58471C26.8394 7.5433 26.8139 7.50302 26.7856 7.46414C26.716 7.36838 26.6317 7.28402 26.5358 7.21441C26.4971 7.18621 26.4569 7.16078 26.4157 7.13815C26.2552 7.05007 26.071 6.99997 25.8751 6.99997H20.375C19.7537 6.99997 19.25 7.50364 19.25 8.12497C19.25 8.74628 19.7537 9.24997 20.375 9.24997H23.159L18.2045 14.2045C17.7652 14.6439 17.7652 15.3562 18.2045 15.7956C18.6438 16.2348 19.3561 16.2348 19.7954 15.7956L24.7501 10.841V13.625Z" fill="white"/>
<path d="M10.7958 18H10.7043C10.008 18 9.41644 18 8.93155 18.0408C8.42235 18.0835 7.92952 18.1771 7.46137 18.424C6.80559 18.7696 6.26967 19.3056 5.92399 19.9614C5.67723 20.4295 5.58354 20.9223 5.54073 21.4315C5.49997 21.9165 5.49998 22.5079 5.5 23.2042V23.2958C5.49998 23.9921 5.49997 24.5835 5.54073 25.0684C5.58354 25.5777 5.67723 26.0704 5.92399 26.5386C6.26967 27.1944 6.80559 27.7304 7.46137 28.076C7.92952 28.3229 8.42235 28.4164 8.93155 28.4592C9.41643 28.5 10.0079 28.5 10.7042 28.5H10.7958C11.4921 28.5 12.0836 28.5 12.5685 28.4592C13.0777 28.4164 13.5705 28.3229 14.0386 28.076C14.6944 27.7304 15.2304 27.1944 15.576 26.5386C15.8228 26.0704 15.9165 25.5777 15.9593 25.0684C16 24.5835 16 23.9921 16 23.2958V23.2042C16 22.5079 16 21.9165 15.9593 21.4315C15.9165 20.9223 15.8228 20.4295 15.576 19.9614C15.2304 19.3056 14.6944 18.7696 14.0386 18.424C13.5705 18.1771 13.0777 18.0835 12.5685 18.0408C12.0836 18 11.4921 18 10.7958 18Z" fill="white"/>
<path fill-rule="evenodd" clip-rule="evenodd" d="M15.9453 296.5H16.0546C18.2857 296.5 20.0349 296.5 21.4366 296.624C22.8646 296.75 24.0394 297.012 25.0894 297.6C26.4772 298.377 27.623 299.523 28.4003 300.911C28.9883 301.961 29.2498 303.135 29.3761 304.563C29.5 305.965 29.5 307.714 29.5 309.945V310.055C29.5 312.286 29.5 314.035 29.3761 315.437C29.2498 316.865 28.9883 318.039 28.4003 319.089C27.623 320.477 26.4772 321.623 25.0894 322.4C24.0394 322.988 22.8646 323.25 21.4366 323.376C20.0349 323.5 18.2859 323.5 16.0548 323.5H15.3125C14.6912 323.5 14.1875 322.996 14.1875 322.375C14.1875 321.754 14.6912 321.25 15.3125 321.25H16C18.2976 321.25 19.9474 321.249 21.2384 321.135C22.5147 321.022 23.3325 320.805 23.9899 320.437C25.0158 319.863 25.8626 319.016 26.4371 317.99C26.8054 317.332 27.022 316.515 27.1348 315.238C27.249 313.947 27.25 312.298 27.25 310C27.25 307.702 27.249 306.053 27.1348 304.762C27.022 303.485 26.8054 302.668 26.4371 302.01C25.8626 300.984 25.0158 300.137 23.9899 299.563C23.3325 299.195 22.5147 298.978 21.2384 298.865C19.9474 298.751 18.2976 298.75 16 298.75C13.7025 298.75 12.0526 298.751 10.7615 298.865C9.48532 298.978 8.66758 299.195 8.01004 299.563C6.98425 300.137 6.1373 300.984 5.56283 302.01C5.1946 302.668 4.97799 303.485 4.86517 304.762C4.75102 306.053 4.75 307.702 4.75 310V310.687C4.75 311.309 4.24632 311.812 3.625 311.812C3.00369 311.812 2.5 311.309 2.5 310.687V309.945C2.49999 307.714 2.49999 305.965 2.6239 304.563C2.75016 303.135 3.01168 301.961 3.59973 300.911C4.37695 299.523 5.52281 298.377 6.91065 297.6C7.96066 297.012 9.13539 296.75 10.5634 296.624C11.9651 296.5 13.7143 296.5 15.9453 296.5Z" fill="white"/>
<path d="M21.7501 308.625C21.7501 309.246 22.2538 309.75 22.8751 309.75C23.4964 309.75 24.0001 309.246 24.0001 308.625V303.125C24.0001 302.929 23.95 302.745 23.8621 302.585C23.8394 302.543 23.8139 302.503 23.7856 302.464C23.716 302.368 23.6317 302.284 23.5358 302.214C23.4971 302.186 23.4569 302.161 23.4157 302.138C23.2552 302.05 23.071 302 22.8751 302H17.375C16.7537 302 16.25 302.504 16.25 303.125C16.25 303.746 16.7537 304.25 17.375 304.25H20.159L15.2045 309.205C14.7652 309.644 14.7652 310.356 15.2045 310.796C15.6438 311.235 16.3561 311.235 16.7954 310.796L21.7501 305.841V308.625Z" fill="white"/>
<path d="M7.79577 313H7.70425C7.00797 313 6.41644 313 5.93155 313.041C5.42235 313.084 4.92952 313.177 4.46137 313.424C3.80559 313.77 3.26967 314.306 2.92399 314.961C2.67723 315.43 2.58354 315.922 2.54073 316.432C2.49997 316.916 2.49998 317.508 2.5 318.204V318.296C2.49998 318.992 2.49997 319.583 2.54073 320.068C2.58354 320.578 2.67723 321.07 2.92399 321.539C3.26967 322.194 3.80559 322.73 4.46137 323.076C4.92952 323.323 5.42235 323.416 5.93155 323.459C6.41643 323.5 7.00792 323.5 7.70419 323.5H7.79578C8.49205 323.5 9.08358 323.5 9.56847 323.459C10.0777 323.416 10.5705 323.323 11.0386 323.076C11.6944 322.73 12.2304 322.194 12.576 321.539C12.8228 321.07 12.9165 320.578 12.9593 320.068C13 319.583 13 318.992 13 318.296V318.204C13 317.508 13 316.916 12.9593 316.432C12.9165 315.922 12.8228 315.43 12.576 314.961C12.2304 314.306 11.6944 313.77 11.0386 313.424C10.5705 313.177 10.0777 313.084 9.56847 313.041C9.08358 313 8.49205 313 7.79577 313Z" fill="white"/>
<path fill-rule="evenodd" clip-rule="evenodd" d="M14.9453 576.5H15.0546C17.2857 576.5 19.0349 576.5 20.4366 576.624C21.8646 576.75 23.0394 577.012 24.0894 577.6C25.4772 578.377 26.623 579.523 27.4003 580.911C27.9883 581.961 28.2498 583.135 28.3761 584.563C28.5 585.965 28.5 587.714 28.5 589.945V590.055C28.5 592.286 28.5 594.035 28.3761 595.437C28.2498 596.865 27.9883 598.039 27.4003 599.089C26.623 600.477 25.4772 601.623 24.0894 602.4C23.0394 602.988 21.8646 603.25 20.4366 603.376C19.0349 603.5 17.2859 603.5 15.0548 603.5H14.3125C13.6912 603.5 13.1875 602.996 13.1875 602.375C13.1875 601.754 13.6912 601.25 14.3125 601.25H15C17.2976 601.25 18.9474 601.249 20.2384 601.135C21.5147 601.022 22.3325 600.805 22.9899 600.437C24.0158 599.863 24.8626 599.016 25.4371 597.99C25.8054 597.332 26.022 596.515 26.1348 595.238C26.249 593.947 26.25 592.298 26.25 590C26.25 587.702 26.249 586.053 26.1348 584.762C26.022 583.485 25.8054 582.668 25.4371 582.01C24.8626 580.984 24.0158 580.137 22.9899 579.563C22.3325 579.195 21.5147 578.978 20.2384 578.865C18.9474 578.751 17.2976 578.75 15 578.75C12.7025 578.75 11.0526 578.751 9.76155 578.865C8.48532 578.978 7.66758 579.195 7.01004 579.563C5.98425 580.137 5.1373 580.984 4.56283 582.01C4.1946 582.668 3.97799 583.485 3.86517 584.762C3.75102 586.053 3.75 587.702 3.75 590V590.687C3.75 591.309 3.24632 591.812 2.625 591.812C2.00369 591.812 1.5 591.309 1.5 590.687V589.945C1.49999 587.714 1.49999 585.965 1.6239 584.563C1.75016 583.135 2.01168 581.961 2.59973 580.911C3.37695 579.523 4.52281 578.377 5.91065 577.6C6.96066 577.012 8.13539 576.75 9.56341 576.624C10.9651 576.5 12.7143 576.5 14.9453 576.5Z" fill="white"/>
<path d="M20.7501 588.625C20.7501 589.246 21.2538 589.75 21.8751 589.75C22.4964 589.75 23.0001 589.246 23.0001 588.625V583.125C23.0001 582.929 22.95 582.745 22.8621 582.585C22.8394 582.543 22.8139 582.503 22.7856 582.464C22.716 582.368 22.6317 582.284 22.5358 582.214C22.4971 582.186 22.4569 582.161 22.4157 582.138C22.2552 582.05 22.071 582 21.8751 582H16.375C15.7537 582 15.25 582.504 15.25 583.125C15.25 583.746 15.7537 584.25 16.375 584.25H19.159L14.2045 589.205C13.7652 589.644 13.7652 590.356 14.2045 590.796C14.6438 591.235 15.3561 591.235 15.7954 590.796L20.7501 585.841V588.625Z" fill="white"/>
<path d="M6.79577 593H6.70425C6.00797 593 5.41644 593 4.93155 593.041C4.42235 593.084 3.92952 593.177 3.46137 593.424C2.80559 593.77 2.26967 594.306 1.92399 594.961C1.67723 595.43 1.58354 595.922 1.54073 596.432C1.49997 596.916 1.49998 597.508 1.5 598.204V598.296C1.49998 598.992 1.49997 599.583 1.54073 600.068C1.58354 600.578 1.67723 601.07 1.92399 601.539C2.26967 602.194 2.80559 602.73 3.46137 603.076C3.92952 603.323 4.42235 603.416 4.93155 603.459C5.41643 603.5 6.00792 603.5 6.70419 603.5H6.79578C7.49205 603.5 8.08358 603.5 8.56847 603.459C9.07767 603.416 9.57048 603.323 10.0386 603.076C10.6944 602.73 11.2304 602.194 11.576 601.539C11.8228 601.07 11.9165 600.578 11.9593 600.068C12 599.583 12 598.992 12 598.296V598.204C12 597.508 12 596.916 11.9593 596.432C11.9165 595.922 11.8228 595.43 11.576 594.961C11.2304 594.306 10.6944 593.77 10.0386 593.424C9.57048 593.177 9.07767 593.084 8.56847 593.041C8.08358 593 7.49205 593 6.79577 593Z" fill="white"/>
<path fill-rule="evenodd" clip-rule="evenodd" d="M14.9453 889.5H15.0546C17.2857 889.5 19.0349 889.5 20.4366 889.624C21.8646 889.75 23.0394 890.012 24.0894 890.6C25.4772 891.377 26.623 892.523 27.4003 893.911C27.9883 894.961 28.2498 896.135 28.3761 897.563C28.5 898.965 28.5 900.714 28.5 902.945V903.055C28.5 905.286 28.5 907.035 28.3761 908.437C28.2498 909.865 27.9883 911.039 27.4003 912.089C26.623 913.477 25.4772 914.623 24.0894 915.4C23.0394 915.988 21.8646 916.25 20.4366 916.376C19.0349 916.5 17.2859 916.5 15.0548 916.5H14.3125C13.6912 916.5 13.1875 915.996 13.1875 915.375C13.1875 914.754 13.6912 914.25 14.3125 914.25H15C17.2976 914.25 18.9474 914.249 20.2384 914.135C21.5147 914.022 22.3325 913.805 22.9899 913.437C24.0158 912.863 24.8626 912.016 25.4371 910.99C25.8054 910.332 26.022 909.515 26.1348 908.238C26.249 906.947 26.25 905.298 26.25 903C26.25 900.702 26.249 899.053 26.1348 897.762C26.022 896.485 25.8054 895.668 25.4371 895.01C24.8626 893.984 24.0158 893.137 22.9899 892.563C22.3325 892.195 21.5147 891.978 20.2384 891.865C18.9474 891.751 17.2976 891.75 15 891.75C12.7025 891.75 11.0526 891.751 9.76155 891.865C8.48532 891.978 7.66758 892.195 7.01004 892.563C5.98425 893.137 5.1373 893.984 4.56283 895.01C4.1946 895.668 3.97799 896.485 3.86517 897.762C3.75102 899.053 3.75 900.702 3.75 903V903.687C3.75 904.309 3.24632 904.812 2.625 904.812C2.00369 904.812 1.5 904.309 1.5 903.687V902.945C1.49999 900.714 1.49999 898.965 1.6239 897.563C1.75016 896.135 2.01168 894.961 2.59973 893.911C3.37695 892.523 4.52281 891.377 5.91065 890.6C6.96066 890.012 8.13539 889.75 9.56341 889.624C10.9651 889.5 12.7143 889.5 14.9453 889.5Z" fill="white"/>
<path d="M20.7501 901.625C20.7501 902.246 21.2538 902.75 21.8751 902.75C22.4964 902.75 23.0001 902.246 23.0001 901.625V896.125C23.0001 895.929 22.95 895.745 22.8621 895.585C22.8394 895.543 22.8139 895.503 22.7856 895.464C22.716 895.368 22.6317 895.284 22.5358 895.214C22.4971 895.186 22.4569 895.161 22.4157 895.138C22.2552 895.05 22.071 895 21.8751 895H16.375C15.7537 895 15.25 895.504 15.25 896.125C15.25 896.746 15.7537 897.25 16.375 897.25H19.159L14.2045 902.205C13.7652 902.644 13.7652 903.356 14.2045 903.796C14.6438 904.235 15.3561 904.235 15.7954 903.796L20.7501 898.841V901.625Z" fill="white"/>
<path d="M6.79577 906H6.70425C6.00797 906 5.41644 906 4.93155 906.041C4.42235 906.084 3.92952 906.177 3.46137 906.424C2.80559 906.77 2.26967 907.306 1.92399 907.961C1.67723 908.43 1.58354 908.922 1.54073 909.432C1.49997 909.916 1.49998 910.508 1.5 911.204V911.296C1.49998 911.992 1.49997 912.583 1.54073 913.068C1.58354 913.578 1.67723 914.07 1.92399 914.539C2.26967 915.194 2.80559 915.73 3.46137 916.076C3.92952 916.323 4.42235 916.416 4.93155 916.459C5.41643 916.5 6.00792 916.5 6.70419 916.5H6.79578C7.49205 916.5 8.08358 916.5 8.56847 916.459C9.07767 916.416 9.57048 916.323 10.0386 916.076C10.6944 915.73 11.2304 915.194 11.576 914.539C11.8228 914.07 11.9165 913.578 11.9593 913.068C12 912.583 12 911.992 12 911.296V911.204C12 910.508 12 909.916 11.9593 909.432C11.9165 908.922 11.8228 908.43 11.576 907.961C11.2304 907.306 10.6944 906.77 10.0386 906.424C9.57048 906.177 9.07767 906.084 8.56847 906.041C8.08358 906 7.49205 906 6.79577 906Z" fill="white"/>
</svg>
