<svg width="59" height="55" viewBox="0 0 59 55" fill="none" xmlns="http://www.w3.org/2000/svg">
<g style="mix-blend-mode:luminosity">
<rect width="58.3673" height="55" rx="27.5" fill="#E5E5E5"/>
<path fill-rule="evenodd" clip-rule="evenodd" d="M23.3281 8.7707C24.0223 9.46497 24.0223 10.5906 23.3281 11.2849L19.8197 14.7932H33.5216C40.8274 14.7932 46.75 20.7158 46.75 28.0216C46.75 35.3274 40.8274 41.25 33.5216 41.25H15.5278C14.5459 41.25 13.75 40.4542 13.75 39.4722C13.75 38.4905 14.5459 37.6944 15.5278 37.6944H33.5216C38.8637 37.6944 43.1944 33.3637 43.1944 28.0216C43.1944 22.6795 38.8637 18.3488 33.5216 18.3488H19.8197L23.3281 21.8571C24.0223 22.5514 24.0223 23.677 23.3281 24.3713C22.6338 25.0655 21.5082 25.0655 20.8139 24.3713L14.2707 17.8281C13.5764 17.1338 13.5764 16.0082 14.2707 15.3139L20.8139 8.7707C21.5082 8.07643 22.6338 8.07643 23.3281 8.7707Z" fill="url(#paint0_linear_30_639)"/>
</g>
<defs>
<linearGradient id="paint0_linear_30_639" x1="30.25" y1="8.25" x2="30.25" y2="41.25" gradientUnits="userSpaceOnUse">
<stop offset="0.215" stop-color="#FF5959"/>
<stop offset="0.51" stop-color="#FFB800"/>
<stop offset="0.84" stop-color="#FF5959"/>
</linearGradient>
</defs>
</svg>
