<svg width="148" height="149" viewBox="0 0 148 149" fill="none" xmlns="http://www.w3.org/2000/svg">
<path d="M223.711 103.033L206.033 120.711L179.411 94.0886L197.088 76.4109L223.711 103.033ZM251.404 35.9034L213.835 35.8285L213.785 10.7822L251.372 10.8572L251.422 35.8857L251.404 35.9034ZM138.903 148.404L113.848 148.363L113.756 110.793L138.811 110.835L138.903 148.404ZM170.563 67.5635C146.114 91.993 106.411 91.9006 81.8805 67.3569C57.3492 42.8128 57.2779 3.10984 81.7208 -21.3265C106.164 -45.7627 145.866 -45.6808 170.404 -21.1434C194.916 3.41671 194.987 43.109 170.563 67.5635ZM223.393 -56.3839L196.876 -29.8674L179.128 -47.6157L205.644 -74.1323L223.393 -56.3839ZM73.1327 93.8762L46.6161 120.393L28.8677 102.644L55.3843 76.1278L73.1327 93.8762ZM138.478 -64.5065L113.432 -64.5741L113.348 -102.152L138.412 -102.102L138.478 -64.5242L138.478 -64.5065ZM38.4847 35.4871L0.924208 35.4033L0.883091 10.3482L38.4525 10.4409L38.4847 35.4694L38.4847 35.4871ZM72.8496 -47.8277L55.1718 -30.15L28.5493 -56.7726L46.227 -74.4503L72.8496 -47.8277Z" fill="url(#paint0_radial_1_17)"/>
<defs>
<radialGradient id="paint0_radial_1_17" cx="0" cy="0" r="1" gradientUnits="userSpaceOnUse" gradientTransform="translate(131.434 39.7472) rotate(45) scale(107.929 107.499)">
<stop stop-color="#FF0000"/>
<stop offset="1" stop-color="#FFAC2E"/>
</radialGradient>
</defs>
</svg>
